<?xml version="1.0" encoding="UTF-8" standalone="no"?>
<svg width="45px" height="53px" viewBox="0 0 45 53" version="1.1" xmlns="http://www.w3.org/2000/svg" xmlns:xlink="http://www.w3.org/1999/xlink">
    <!-- Generator: Sketch 40.1 (33804) - http://www.bohemiancoding.com/sketch -->
    <title>question_box</title>
    <desc>Created with Sketch.</desc>
    <defs></defs>
    <g id="Page-1" stroke="none" stroke-width="1" fill="none" fill-rule="evenodd">
        <g id="question_box" fill="#C8C8C8">
            <g id="Page-1">
                <g id="noun_467363_cc">
                    <g id="Group">
                        <g>
                            <path d="M45,29.0507644 C45,28.5394789 44.7713584,27.7591433 44.5034685,27.3304843 L36.9484065,15.2413906 C36.6741797,14.8025918 36.6328997,14.0583588 36.8492201,13.5940903 L38.6926899,9.63762429 C39.1337226,8.69107766 38.7170192,7.56269293 37.7999451,7.13502186 L24.1913049,0.788728147 C23.2572231,0.35312562 22.1445101,0.762386481 21.6999169,1.71586454 L16.7815503,12.2638321 C16.5597802,12.739442 15.9627834,13.125 15.4352745,13.125 L10.3197255,13.125 C9.79796799,13.125 9.14325714,13.4957886 8.87095928,13.9314652 L0.504040717,27.3185349 C0.225666716,27.7639333 0,28.5598755 0,29.0625 L0,30 L0,50.6203626 C0,51.6584576 0.839004787,52.5 1.87630243,52.5 L43.1236976,52.5 C44.1599509,52.5 45,51.6609574 45,50.6278082 L45,29.0507644 L45,29.0507644 Z M37.00125,8.83125 L31.5,20.625 L14.95125,20.625 L23.4075,2.491875 L37.00125,8.83125 L37.00125,8.83125 Z M14.5725509,15 C15.0882187,15 15.3342625,15.369072 15.1081385,15.8543164 L13.2831115,19.7706836 C13.0632406,20.2425096 12.4546051,20.625 11.9627888,20.625 L10.2972112,20.625 C9.78788801,20.625 9.375,21.0598755 9.375,21.5625 C9.375,22.080267 9.78732482,22.5 10.3092514,22.5 L34.6907486,22.5 C35.2067214,22.5 35.625,22.0651245 35.625,21.5625 C35.625,21.044733 35.1891874,20.625 34.6937027,20.625 L34.5012973,20.625 C33.9869559,20.625 33.7487449,20.2419013 33.9619556,19.7849327 L35.1149194,17.3138174 C35.3313906,16.849861 35.7327533,16.8352251 36.0073018,17.2745876 L41.790426,26.5293735 C42.3410948,27.4106138 41.9400334,28.125 40.9118595,28.125 L4.08814052,28.125 C3.05225288,28.125 2.65353563,27.419343 3.20198854,26.5418183 L9.92704834,15.7817227 C10.1968818,15.3499891 10.8496488,15 11.3493241,15 L14.5725509,15 L14.5725509,15 Z M41.2243461,29.9515963 C42.2618743,29.9503202 43.1046934,30.7874848 43.1068431,31.8252364 L43.1420049,48.8004598 C43.1441511,49.8365188 42.321489,50.6753837 41.2653232,50.674068 L3.75556755,50.6273426 C2.71695878,50.6260489 1.875,49.7909306 1.875,48.7582922 L1.875,31.8667078 C1.875,30.8357535 2.69854408,29.9989869 3.75361123,29.9976891 L41.2243461,29.9515963 L41.2243461,29.9515963 Z" id="Shape"></path>
                            <g id="question_mark_circle" transform="translate(18.750000, 33.750000)" stroke="#C8C8C8">
                                <g id="Page-1">
                                    <g id="iPhone-6">
                                        <g id="Group">
                                            <g>
                                                <ellipse id="Oval" cx="3.75" cy="12.9393667" rx="0.675266668" ry="0.675266668"></ellipse>
                                                <path d="M3.75,0 C1.95426667,0 0.472599984,1.36966667 0.295266671,3.11943332 C0.275433313,3.31356669 0.435733344,3.47223332 0.631033344,3.47223332 L0.666500016,3.47223332 C0.862033344,3.47223332 1.01766667,3.31333331 1.04263334,3.11966666 C1.21599998,1.78033331 2.364,0.742466655 3.74976667,0.742466655 C5.25500001,0.742466655 6.47906668,1.96723331 6.47906668,3.47223332 C6.47906668,4.20116666 6.19533332,4.88693334 5.67966667,5.40259999 C5.59473332,5.48776667 5.47036665,5.58856667 5.32640001,5.70499999 C4.64016667,6.26079999 3.51806668,7.16846666 3.38996668,9.02113331 C3.37643332,9.21596666 3.53626665,9.37463334 3.73179999,9.37463334 L3.76726665,9.37463334 C3.96279999,9.37463334 4.11913335,9.21596666 4.13523332,9.02136669 C4.26076665,7.52336666 5.17426665,6.78393332 5.79353332,6.28226666 C5.95359999,6.15253331 6.09196665,6.04099999 6.2049,5.92783331 C6.86079999,5.27146667 7.22176665,4.39950002 7.22176665,3.47223332 C7.22246668,1.55726666 5.66473335,0 3.75,0 L3.75,0 L3.75,0 L3.75,0 Z" id="Shape"></path>
                                            </g>
                                        </g>
                                    </g>
                                </g>
                            </g>
                        </g>
                    </g>
                </g>
            </g>
        </g>
    </g>
</svg>