<?xml version="1.0" encoding="UTF-8" standalone="no"?>
<svg width="25px" height="25px" viewBox="0 0 25 25" version="1.1" xmlns="http://www.w3.org/2000/svg" xmlns:xlink="http://www.w3.org/1999/xlink">
    <defs></defs>
    <g id="Page-1" stroke="none" stroke-width="1" fill="none" fill-rule="evenodd">
        <g id="top_writer_gray_medium" fill="#999999">
            <g id="Group-Copy" transform="translate(1.500000, 0.000000)">
                <path d="M6.897,24.109 C6.644,24.109 6.393,23.999 6.22,23.788 C5.03,22.331 1.436,16.96 5.149,9.029 C7.763,3.45 13.589,0.483 21.148,0.873 C21.628,0.898 21.998,1.308 21.973,1.789 C21.947,2.271 21.545,2.649 21.056,2.615 C17.838,2.445 9.989,2.806 6.729,9.769 C3.537,16.586 6.255,21.072 7.571,22.685 C7.876,23.058 7.82,23.607 7.447,23.912 C7.285,24.044 7.09,24.109 6.897,24.109" id="Fill-5"></path>
                <path d="M8.852,8.364 C10.262,6.298 12.318,5.214 14.802,4.364 C16.939,3.633 20.14,3.574 20.14,3.574 C20.14,3.574 18.45,5.941 16.024,7.374 C14.675,8.171 11.796,9.14 10.211,9.22 C10.455,9.782 11.587,10.093 12.561,10.089 C11.819,11.602 8.298,10.82 6.691,13.175 C7.255,10.831 8.166,9.368 8.852,8.364" id="Fill-6"></path>
                <path d="M9.083,8.499 C10.676,6.37 12.997,5.101 15.542,4.422 C16.629,4.133 17.758,3.996 18.877,3.909 C19.181,3.886 19.485,3.867 19.79,3.854 C20.133,3.919 20.159,3.799 19.868,3.495 C19.697,4.703 16.698,6.675 15.889,7.143 C14.211,8.114 12.141,8.765 10.211,8.953 C9.979,8.975 9.86,9.228 10.022,9.41 C10.414,9.849 11.04,9.877 11.394,10.208 C11.886,10.669 11.913,9.856 11.485,10.518 C11.282,10.833 10.449,10.915 10.148,10.993 C8.686,11.375 7.49,11.783 6.501,12.986 C6.651,13.073 6.8,13.159 6.949,13.246 C7.416,11.518 8.093,9.981 9.083,8.499 C9.275,8.212 8.811,7.944 8.621,8.229 C7.599,9.759 6.912,11.33 6.433,13.104 C6.367,13.346 6.703,13.579 6.88,13.364 C8.458,11.443 11.452,12.132 12.792,10.224 C12.918,10.045 12.745,9.835 12.561,9.821 C8.617,9.529 12.202,9.171 13.277,8.824 C14.391,8.464 15.488,8.025 16.48,7.399 C17.988,6.449 19.319,5.145 20.371,3.709 C20.493,3.543 20.329,3.301 20.14,3.306 C15.822,3.418 11.311,4.632 8.621,8.229 C8.414,8.505 8.879,8.772 9.083,8.499" id="Fill-7"></path>
                <path d="M10.118,23.974 L8.89,17.631 C8.825,17.325 8.636,17.067 8.326,17.067 L7.938,17.067 L7.938,16.183 L8.549,16.183 C8.882,16.183 9.154,15.911 9.154,15.578 C9.154,15.245 8.882,14.973 8.549,14.973 L1.927,14.973 C1.595,14.973 1.323,15.245 1.323,15.578 C1.323,15.911 1.595,16.183 1.927,16.183 L2.538,16.183 L2.538,17.067 L2.074,17.067 C1.764,17.067 1.571,17.304 1.51,17.631 L0.357,23.974 C0.315,24.266 0.61,24.536 0.919,24.536 L9.557,24.536 C9.866,24.536 10.166,24.314 10.118,23.974" id="Fill-8"></path>
            </g>
        </g>
    </g>
</svg>